<?xml version="1.0" encoding="UTF-8"?>
<svg width="808.09" height="393.26" clip-rule="evenodd" fill-rule="evenodd" image-rendering="optimizeQuality" shape-rendering="geometricPrecision" text-rendering="geometricPrecision" version="1.1" viewBox="0 0 80809 39332" xml:space="preserve" xmlns="http://www.w3.org/2000/svg" xmlns:cc="http://creativecommons.org/ns#" xmlns:dc="http://purl.org/dc/elements/1.1/" xmlns:rdf="http://www.w3.org/1999/02/22-rdf-syntax-ns#"><metadata><rdf:RDF><cc:Work rdf:about=""><dc:format>image/svg+xml</dc:format><dc:type rdf:resource="http://purl.org/dc/dcmitype/StillImage"/><dc:title/></cc:Work></rdf:RDF></metadata>
 <defs>
  <style type="text/css">
   <![CDATA[
    .fil0 {fill:#008DD2}
    .fil1 {fill:#333333;fill-rule:nonzero}
   ]]>
  </style>
 </defs>
 <g transform="translate(-7341.5 -39300)">
  
  <path class="fil0" d="m23312 39300c15731 7392 20023 20820 4170 23549 20427 168 18195-13469-4170-23549z" fill="#008dd2"/>
  <path class="fil0" d="m29983 39300c15731 7392 20023 20820 4170 23549 20427 168 18195-13469-4170-23549z" fill="#008dd2"/>
  <path class="fil0" d="m39128 78632c-15731-7392-20023-20820-4170-23549-20427-168-18195 13469 4170 23549z" fill="#008dd2"/>
  <path class="fil1" d="m83719 63062c-1116 0-1994-158-2632-475-639-316-1099-817-1381-1502s-423-1614-423-2788c0-1254 141-2224 423-2908 282-685 739-1168 1372-1450s1513-423 2641-423 2008 147 2641 440 1090 785 1372 1476c282 690 423 1646 423 2865 0 1220-135 2169-406 2848-270 679-722 1168-1355 1467s-1525 449-2675 449zm0-2658c311 0 538-43 682-129s247-276 311-570c63-293 95-768 95-1424 0-644-32-1113-95-1407-63-293-167-483-311-570-144-86-371-129-682-129s-538 43-682 129-247 276-311 570c-63 293-95 762-95 1407 0 656 32 1131 95 1424s167 483 311 570c144 86 371 129 682 129z" fill="#333" fill-rule="nonzero"/>
  <path class="fil0" d="m32341 78632c-15731-7392-20023-20820-4170-23549-20427-168-18195 13469 4170 23549z" fill="#008dd2"/>
  <path class="fil1" d="m61694 63079c-725 0-1306-213-1743-639s-656-1001-656-1726v-949c0-725 265-1309 794-1752s1323-665 2382-665h1864v-293c0-253-40-440-121-561s-245-207-492-259-636-78-1165-78h-2710v-1916c541-207 1128-371 1761-492s1369-181 2209-181c1277 0 2241 233 2891 699s975 1315 975 2546v6162h-2658l-518-932c-276 276-650 518-1122 725s-1036 311-1692 311zm1761-2278c138 0 296-26 475-78 178-52 314-101 406-147v-1674l-708 104c-334 46-581 132-742 259s-242 311-242 552v345c0 230 69 394 207 492s339 147 604 147z" fill="#333" fill-rule="nonzero"/>
  <path class="fil0" d="m25555 78632c-15731-7392-20023-20820-4170-23549-20427-168-18195 13469 4170 23549z" fill="#008dd2"/>
  <path class="fil1" d="m69168 53672h2796l552 898c311-288 711-535 1200-742s964-311 1424-311c1116 0 1879 299 2287 898 408 598 613 1450 613 2555v6007h-3349v-5558c0-334-81-567-242-699s-386-199-673-199c-230 0-460 52-690 155-230 104-420 230-570 380v5920h-3349v-9304z" fill="#333" fill-rule="nonzero"/>
  <path class="fil1" d="m56499 62976c-817 0-1459-109-1925-328s-803-581-1010-1087-293-1203-259-2089l104-3141h-1433v-2140l1571-518 414-2606h2658v2606h1881v2658h-1881v3124c0 299 49 521 147 665s256 227 475 250l1191 121v2486h-1933z" fill="#333" fill-rule="nonzero"/>
  <path class="fil1" d="m60305 72191c-694 0-1237-85-1631-255s-681-468-862-894-271-1030-271-1810c0-809 81-1430 244-1864 163-433 433-737 813-910 379-173 916-260 1609-260 643 0 1140 60 1490 179s603 325 759 618c155 293 233 717 233 1273 0 607-173 1037-520 1290s-849 379-1506 379h-1040c22 188 67 331 135 428 69 98 188 168 358 211s424 65 764 65h1593v1225c-332 101-666 181-1002 238-336 58-724 87-1165 87zm130-3479c144 0 249-33 314-98s98-177 98-336c0-209-51-359-152-450-101-90-264-135-488-135-217 0-372 72-466 217-94 144-141 412-141 802h834z" fill="#333" fill-rule="nonzero"/>
  <path class="fil1" d="m75661 72201c-448 0-872-27-1273-81s-731-139-992-255v-1225h2709c130 0 217-16 260-49 43-32 65-89 65-168v-141c0-79-27-137-81-173s-161-54-320-54h-975c-535 0-966-134-1295-401s-493-694-493-1279v-358c0-397 74-724 222-981 148-256 408-453 780-591 372-137 883-206 1533-206 376 0 771 34 1187 103 415 69 728 146 937 233v1225h-2568c-108 0-188 16-238 49-51 33-76 89-76 168v141c0 87 31 146 92 179s175 49 341 49h1008c607 0 1046 137 1317 412s406 672 406 1192v596c0 578-206 992-618 1241s-1055 374-1929 374z" fill="#333" fill-rule="nonzero"/>
  <path class="fil1" d="m63491 66295h1756l347 564c289-217 562-381 818-493s583-168 981-168c347 0 639 70 878 211 238 141 423 334 553 580 694-527 1308-791 1842-791 708 0 1196 184 1463 553 267 368 401 936 401 1701v3685h-2102v-3489c0-210-51-356-152-439s-242-125-423-125c-144 0-289 33-433 98-145 65-264 145-358 238v3717h-2102v-3489c0-210-51-356-152-439s-242-125-423-125c-145 0-289 33-433 98s-264 145-358 238v3717h-2102v-5841z" fill="#333" fill-rule="nonzero"/>
  <path class="fil1" d="m55742 72136c-513 0-916-69-1208-206-293-137-504-365-634-683s-184-755-163-1311l65-1972h-899v-1344l986-325 260-1636h1669v1636h1181v1669h-1181v1961c0 188 31 327 92 417s161 143 298 157l748 76v1561z" fill="#333" fill-rule="nonzero"/>
  <path class="fil1" d="m50020 72201c-448 0-872-27-1273-81s-731-139-992-255v-1225h2709c130 0 217-16 260-49 43-32 65-89 65-168v-141c0-79-27-137-81-173s-161-54-320-54h-975c-535 0-966-134-1295-401s-493-694-493-1279v-358c0-397 74-724 222-981 148-256 408-453 780-591 372-137 883-206 1533-206 376 0 771 34 1187 103 415 69 728 146 937 233v1225h-2568c-108 0-188 16-238 49-51 33-76 89-76 168v141c0 87 31 146 92 179s175 49 341 49h1008c607 0 1046 137 1317 412s406 672 406 1192v596c0 578-206 992-618 1241s-1055 374-1929 374z" fill="#333" fill-rule="nonzero"/>
  <path class="fil1" d="m44017 72136c-1127 0-1810-564-2048-1691l-899-4151h2178l661 3728c43 267 199 408 466 423l748-4151h2135l-1485 7337-542 1073h-1777l564-2568z" fill="#333" fill-rule="nonzero"/>
  <path class="fil1" d="m38154 72201c-448 0-872-27-1273-81s-731-139-992-255v-1225h2709c130 0 217-16 260-49 43-32 65-89 65-168v-141c0-79-27-137-81-173s-161-54-320-54h-975c-535 0-966-134-1295-401s-493-694-493-1279v-358c0-397 74-724 222-981 148-256 408-453 780-591 372-137 883-206 1533-206 376 0 771 34 1187 103 415 69 728 146 937 233v1225h-2568c-108 0-188 16-238 49-51 33-76 89-76 168v141c0 87 31 146 92 179s175 49 341 49h1008c607 0 1046 137 1317 412s406 672 406 1192v596c0 578-206 992-618 1241s-1055 374-1929 374z" fill="#333" fill-rule="nonzero"/>
 </g>
</svg>
